ffmpeg started on 2016-11-26 at 09:46:28
Report written to "Output/NVENCh264/results/ffmpeg/sintelll2000k.log"
Command line:
Tools/ffmpeg/ffmpeg -benchmark -y -i Input/y4m/sintel.y4m -c:v h264_nvenc -preset ll -b:v 2000k -an Output/NVENCh264/encoded/sintelll2000k.mkv
ffmpeg version N-82227-gdb23fde Copyright (c) 2000-2016 the FFmpeg developers
  built with gcc 5.4.0 (Ubuntu 5.4.0-6ubuntu1~16.04.2) 20160609
  configuration: --prefix=/home/jaroslav/ffmpeg_build --pkg-config-flags=--static --extra-cflags=-I/home/jaroslav/ffmpeg_build/include --extra-ldflags=-L/home/jaroslav/ffmpeg_build/lib --bindir=/home/jaroslav/bin --enable-gpl --enable-libass --enable-libfdk-aac --enable-libfreetype --enable-libmp3lame --enable-libopus --enable-libtheora --enable-libvorbis --enable-libvpx --enable-libx264 --enable-libx265 --enable-nvenc --enable-libmfx --enable-libxvid --enable-libgsm --enable-libopencore-amrnb --enable-version3 --enable-nonfree
  libavutil      55. 35.100 / 55. 35.100
  libavcodec     57. 66.101 / 57. 66.101
  libavformat    57. 57.100 / 57. 57.100
  libavdevice    57.  2.100 / 57.  2.100
  libavfilter     6. 66.100 /  6. 66.100
  libswscale      4.  3.100 /  4.  3.100
  libswresample   2.  4.100 /  2.  4.100
  libpostproc    54.  2.100 / 54.  2.100
Input #0, yuv4mpegpipe, from 'Input/y4m/sintel.y4m':
  Duration: 00:00:20.83, start: 0.000000, bitrate: 2057307 kb/s
    Stream #0:0: Video: rawvideo (I420 / 0x30323449), yuv420p(progressive), 4096x1744, SAR 1:1 DAR 256:109, 24 fps, 24 tbr, 24 tbn, 24 tbc
[h264_nvenc @ 0x289f1c0] The variable bitrate rate-control requires the 'qmin' and/or 'qmax' option set.
Output #0, matroska, to 'Output/NVENCh264/encoded/sintelll2000k.mkv':
  Metadata:
    encoder         : Lavf57.57.100
    Stream #0:0: Video: h264 (h264_nvenc) (Main) (H264 / 0x34363248), yuv420p, 4096x1744 [SAR 1:1 DAR 256:109], q=-1--1, 2000 kb/s, 24 fps, 1k tbn, 24 tbc
    Metadata:
      encoder         : Lavc57.66.101 h264_nvenc
    Side data:
      cpb: bitrate max/min/avg: 0/0/2000000 buffer size: 4000000 vbv_delay: -1
Stream mapping:
  Stream #0:0 -> #0:0 (rawvideo (native) -> h264 (h264_nvenc))
Press [q] to stop, [?] for help
frame=    9 fps=0.0 q=0.0 size=       0kB time=00:00:00.00 bitrate=N/A speed=   0x    frame=   16 fps= 14 q=0.0 size=       0kB time=00:00:00.00 bitrate=N/A speed=   0x    frame=   21 fps= 10 q=0.0 size=       0kB time=00:00:00.00 bitrate=N/A speed=   0x    frame=   23 fps=9.0 q=0.0 size=       0kB time=00:00:00.00 bitrate=N/A speed=   0x    frame=   24 fps=7.5 q=0.0 size=       0kB time=00:00:00.00 bitrate=N/A speed=   0x    frame=   26 fps=5.4 q=0.0 size=       0kB time=00:00:00.00 bitrate=N/A speed=   0x    frame=   27 fps=3.2 q=0.0 size=       0kB time=00:00:00.00 bitrate=N/A speed=   0x    frame=   28 fps=2.4 q=0.0 size=       0kB time=00:00:00.00 bitrate=N/A speed=   0x    frame=   29 fps=2.0 q=0.0 size=       0kB time=00:00:00.00 bitrate=N/A speed=   0x    frame=   36 fps=2.4 q=46.0 size=       1kB time=00:00:00.20 bitrate=  28.5kbits/s speed=0.0139x    frame=   38 fps=2.4 q=49.0 size=       1kB time=00:00:00.29 bitrate=  20.3kbits/s speed=0.0186x    frame=   41 fps=2.5 q=49.0 size=       1kB time=00:00:00.41 bitrate=  14.3kbits/s speed=0.0257x    frame=   47 fps=2.7 q=49.0 size=       1kB time=00:00:00.66 bitrate=   8.9kbits/s speed=0.0384x    frame=   50 fps=2.8 q=49.0 size=       1kB time=00:00:00.79 bitrate=   7.5kbits/s speed=0.0438x    frame=   52 fps=2.8 q=49.0 size=       1kB time=00:00:00.87 bitrate=   6.8kbits/s speed=0.0464x    frame=   56 fps=2.9 q=49.0 size=       1kB time=00:00:01.04 bitrate=   5.7kbits/s speed=0.0538x    frame=   60 fps=3.0 q=49.0 size=       1kB time=00:00:01.20 bitrate=   4.9kbits/s speed=0.0602x    frame=   62 fps=2.9 q=49.0 size=       1kB time=00:00:01.29 bitrate=   4.6kbits/s speed=0.0614x    frame=   63 fps=2.9 q=49.0 size=       1kB time=00:00:01.33 bitrate=   4.5kbits/s speed=0.0617x    frame=   65 fps=2.9 q=49.0 size=       1kB time=00:00:01.41 bitrate=   4.2kbits/s speed=0.0636x    frame=   67 fps=2.9 q=49.0 size=       1kB time=00:00:01.50 bitrate=   4.0kbits/s speed=0.0646x    frame=   69 fps=2.9 q=49.0 size=       1kB time=00:00:01.58 bitrate=   3.8kbits/s speed=0.0666x    frame=   72 fps=2.9 q=49.0 size=       1kB time=00:00:01.70 bitrate=   3.5kbits/s speed=0.0695x    frame=   74 fps=2.9 q=49.0 size=       1kB time=00:00:01.79 bitrate=   3.3kbits/s speed=0.0712x    frame=   77 fps=2.9 q=49.0 size=       1kB time=00:00:01.91 bitrate=   3.1kbits/s speed=0.0734x    frame=   81 fps=3.0 q=49.0 size=       1kB time=00:00:02.08 bitrate=   2.9kbits/s speed=0.0773x    frame=   83 fps=3.0 q=49.0 size=       1kB time=00:00:02.16 bitrate=   2.7kbits/s speed=0.078x    frame=   85 fps=3.0 q=49.0 size=       1kB time=00:00:02.25 bitrate=   2.6kbits/s speed=0.079x    frame=   88 fps=3.0 q=49.0 size=       1kB time=00:00:02.37 bitrate=   2.5kbits/s speed=0.0811x    frame=   89 fps=3.0 q=49.0 size=       1kB time=00:00:02.41 bitrate=   2.5kbits/s speed=0.081x    frame=   91 fps=3.0 q=49.0 size=       1kB time=00:00:02.50 bitrate=   2.4kbits/s speed=0.0816x    frame=   93 fps=3.0 q=49.0 size=       1kB time=00:00:02.58 bitrate=   2.3kbits/s speed=0.0823x    frame=   94 fps=2.9 q=49.0 size=       1kB time=00:00:02.62 bitrate=   2.3kbits/s speed=0.0822x    frame=   96 fps=2.9 q=49.0 size=       1kB time=00:00:02.70 bitrate=   2.2kbits/s speed=0.0828x    frame=   97 fps=2.9 q=49.0 size=       1kB time=00:00:02.75 bitrate=   2.2kbits/s speed=0.0826x    frame=   98 fps=2.9 q=49.0 size=       1kB time=00:00:02.79 bitrate=   2.1kbits/s speed=0.0824x    frame=   99 fps=2.9 q=49.0 size=       1kB time=00:00:02.83 bitrate=   2.1kbits/s speed=0.082x    frame=  100 fps=2.8 q=49.0 size=       1kB time=00:00:02.87 bitrate=   2.1kbits/s speed=0.0819x    frame=  102 fps=2.8 q=49.0 size=       1kB time=00:00:02.95 bitrate=   2.0kbits/s speed=0.0823x    frame=  104 fps=2.9 q=49.0 size=       1kB time=00:00:03.04 bitrate=   2.0kbits/s speed=0.0835x    frame=  106 fps=2.8 q=49.0 size=       1kB time=00:00:03.12 bitrate=   1.9kbits/s speed=0.0836x    frame=  108 fps=2.8 q=49.0 size=       1kB time=00:00:03.20 bitrate=   1.9kbits/s speed=0.0846x    frame=  112 fps=2.9 q=49.0 size=       1kB time=00:00:03.37 bitrate=   1.8kbits/s speed=0.087x    frame=  115 fps=2.9 q=49.0 size=       1kB time=00:00:03.50 bitrate=   1.7kbits/s speed=0.0885x    frame=  118 fps=2.9 q=49.0 size=       1kB time=00:00:03.62 bitrate=   1.6kbits/s speed=0.0904x    frame=  126 fps=3.1 q=49.0 size=       1kB time=00:00:03.95 bitrate=   1.5kbits/s speed=0.0968x    frame=  128 fps=3.1 q=49.0 size=       1kB time=00:00:04.04 bitrate=   1.5kbits/s speed=0.0975x    frame=  132 fps=3.1 q=49.0 size=       1kB time=00:00:04.20 bitrate=   1.4kbits/s speed=0.0987x    frame=  134 fps=3.1 q=49.0 size=       1kB time=00:00:04.29 bitrate=   1.4kbits/s speed=0.0989x    frame=  135 fps=3.1 q=49.0 size=       1kB time=00:00:04.33 bitrate=   1.4kbits/s speed=0.0987x    frame=  139 fps=3.1 q=49.0 size=       1kB time=00:00:04.50 bitrate=   1.3kbits/s speed=0.101x    frame=  143 fps=3.1 q=49.0 size=       1kB time=00:00:04.66 bitrate=   1.3kbits/s speed=0.103x    frame=  145 fps=3.1 q=49.0 size=       1kB time=00:00:04.75 bitrate=   1.3kbits/s speed=0.103x    frame=  148 fps=3.2 q=49.0 size=    1371kB time=00:00:04.87 bitrate=2303.8kbits/s speed=0.104x    frame=  153 fps=3.2 q=49.0 size=    1371kB time=00:00:05.08 bitrate=2209.6kbits/s speed=0.107x    frame=  157 fps=3.2 q=49.0 size=    1371kB time=00:00:05.25 bitrate=2139.3kbits/s speed=0.108x    frame=  160 fps=3.2 q=49.0 size=    1371kB time=00:00:05.37 bitrate=2089.6kbits/s speed=0.109x    frame=  161 fps=3.2 q=49.0 size=    1371kB time=00:00:05.41 bitrate=2073.4kbits/s speed=0.108x    frame=  165 fps=3.3 q=49.0 size=    1371kB time=00:00:05.58 bitrate=2011.7kbits/s speed=0.11x    frame=  167 fps=3.3 q=49.0 size=    1371kB time=00:00:05.66 bitrate=1981.9kbits/s speed=0.11x    frame=  171 fps=3.3 q=49.0 size=    1371kB time=00:00:05.83 bitrate=1925.5kbits/s speed=0.112x    frame=  175 fps=3.3 q=49.0 size=    1371kB time=00:00:06.00 bitrate=1871.9kbits/s speed=0.113x    frame=  177 fps=3.3 q=49.0 size=    1371kB time=00:00:06.08 bitrate=1846.4kbits/s speed=0.113x    frame=  178 fps=3.3 q=49.0 size=    1371kB time=00:00:06.12 bitrate=1833.7kbits/s speed=0.113x    frame=  180 fps=3.3 q=49.0 size=    1371kB time=00:00:06.20 bitrate=1809.2kbits/s speed=0.113x    frame=  184 fps=3.3 q=49.0 size=    1371kB time=00:00:06.37 bitrate=1761.8kbits/s speed=0.114x    frame=  187 fps=3.3 q=49.0 size=    1371kB time=00:00:06.50 bitrate=1728.0kbits/s speed=0.115x    frame=  189 fps=3.3 q=49.0 size=    1371kB time=00:00:06.58 bitrate=1706.2kbits/s speed=0.115x    frame=  191 fps=3.3 q=49.0 size=    1371kB time=00:00:06.66 bitrate=1684.7kbits/s speed=0.115x    frame=  196 fps=3.3 q=49.0 size=    1371kB time=00:00:06.87 bitrate=1633.7kbits/s speed=0.117x    frame=  199 fps=3.4 q=49.0 size=    1371kB time=00:00:07.00 bitrate=1604.6kbits/s speed=0.118x    frame=  200 fps=3.3 q=49.0 size=    1371kB time=00:00:07.04 bitrate=1595.0kbits/s speed=0.118x    frame=  201 fps=3.3 q=49.0 size=    1371kB time=00:00:07.08 bitrate=1585.8kbits/s speed=0.117x    frame=  203 fps=3.3 q=49.0 size=    1371kB time=00:00:07.16 bitrate=1567.2kbits/s speed=0.117x    frame=  206 fps=3.3 q=49.0 size=    1371kB time=00:00:07.29 bitrate=1540.3kbits/s speed=0.118x    frame=  208 fps=3.3 q=49.0 size=    1371kB time=00:00:07.37 bitrate=1523.0kbits/s speed=0.118x    frame=  211 fps=3.3 q=49.0 size=    1371kB time=00:00:07.50 bitrate=1497.6kbits/s speed=0.118x    frame=  212 fps=3.3 q=49.0 size=    1371kB time=00:00:07.54 bitrate=1489.3kbits/s speed=0.118x    frame=  217 fps=3.4 q=49.0 size=    1371kB time=00:00:07.75 bitrate=1449.3kbits/s speed=0.12x    frame=  223 fps=3.4 q=49.0 size=    1371kB time=00:00:08.00 bitrate=1404.0kbits/s speed=0.123x    frame=  225 fps=3.4 q=49.0 size=    1371kB time=00:00:08.08 bitrate=1389.6kbits/s speed=0.123x    frame=  227 fps=3.4 q=49.0 size=    1371kB time=00:00:08.16 bitrate=1375.3kbits/s speed=0.123x    frame=  229 fps=3.4 q=49.0 size=    1371kB time=00:00:08.25 bitrate=1361.5kbits/s speed=0.123x    frame=  231 fps=3.4 q=49.0 size=    1371kB time=00:00:08.33 bitrate=1347.9kbits/s speed=0.122x    frame=  233 fps=3.4 q=49.0 size=    1371kB time=00:00:08.41 bitrate=1334.5kbits/s speed=0.122x    frame=  236 fps=3.4 q=49.0 size=    1371kB time=00:00:08.54 bitrate=1314.9kbits/s speed=0.122x    frame=  240 fps=3.4 q=49.0 size=    1371kB time=00:00:08.70 bitrate=1289.9kbits/s speed=0.123x    frame=  241 fps=3.4 q=49.0 size=    1371kB time=00:00:08.75 bitrate=1283.7kbits/s speed=0.122x    frame=  243 fps=3.4 q=49.0 size=    1371kB time=00:00:08.83 bitrate=1271.6kbits/s speed=0.122x    frame=  248 fps=3.4 q=49.0 size=    1371kB time=00:00:09.04 bitrate=1242.2kbits/s speed=0.124x    frame=  249 fps=3.4 q=49.0 size=    1371kB time=00:00:09.08 bitrate=1236.6kbits/s speed=0.123x    frame=  252 fps=3.4 q=49.0 size=    1371kB time=00:00:09.20 bitrate=1219.8kbits/s speed=0.124x    frame=  273 fps=3.6 q=49.0 size=    2668kB time=00:00:10.08 bitrate=2167.0kbits/s speed=0.134x    frame=  294 fps=3.9 q=49.0 size=    2668kB time=00:00:10.95 bitrate=1994.0kbits/s speed=0.145x    frame=  315 fps=4.1 q=49.0 size=    2884kB time=00:00:11.83 bitrate=1996.5kbits/s speed=0.156x    frame=  336 fps=4.4 q=49.0 size=    2884kB time=00:00:12.70 bitrate=1859.0kbits/s speed=0.166x    frame=  357 fps=4.6 q=44.0 size=    2884kB time=00:00:13.58 bitrate=1739.3kbits/s speed=0.176x    frame=  378 fps=4.9 q=41.0 size=    2884kB time=00:00:14.45 bitrate=1634.0kbits/s speed=0.186x    frame=  399 fps=5.1 q=42.0 size=    2884kB time=00:00:15.33 bitrate=1540.8kbits/s speed=0.196x    frame=  420 fps=5.3 q=39.0 size=    3881kB time=00:00:16.20 bitrate=1961.6kbits/s speed=0.206x    frame=  441 fps=5.6 q=42.0 size=    3881kB time=00:00:17.08 bitrate=1861.1kbits/s speed=0.216x    frame=  462 fps=5.8 q=40.0 size=    4207kB time=00:00:17.95 bitrate=1919.1kbits/s speed=0.225x    frame=  483 fps=6.0 q=42.0 size=    4207kB time=00:00:18.83 bitrate=1829.9kbits/s speed=0.235x    frame=  500 fps=6.2 q=43.0 Lsize=    5043kB time=00:00:20.79 bitrate=1986.9kbits/s speed=0.258x    
video:5039kB audio:0kB subtitle:0kB other streams:0kB global headers:0kB muxing overhead: 0.087312%
bench: utime=1.116s
bench: maxrss=1188352kB
